# xmcd
#
# Track frame offsets: 
#        150
#        14717
#        24761
#        39220
#        57810
#        79898
#        99034
#        118909
#        134605
#        143583
#        158284
#        176143
#        187968
#        206142
#        224779
#        233588
#        248346
#
# Disc length: 3526 seconds
#
# Revision: 3
# Processed by: cddbd v1.5.2PL0 Copyright (c) Steve Scherf et al.
# Submitted via: ExactAudioCopyFreeDBPlugin 1.0
#
DISCID=db0dc411
DTITLE=Quadro Nuevo - Luna Rossa
DYEAR=2000
DGENRE=Jazz
TTITLE0=Luna Rossa
TTITLE1=Nature Boy
TTITLE2=Kommissar Maigret
TTITLE3=Te reat a ser mi amante
TTITLE4=Für Pauline
TTITLE5=Our Spanish love song
TTITLE6=Impressions d'un Rêve. Tango
TTITLE7=Impressions d'un Rêve. Valse lento
TTITLE8=Impressions d'un Rêve. Valse vivace
TTITLE9=Bensoir Juliette
TTITLE10=Bei dir war es immer so schön
TTITLE11=El pano moruno
TTITLE12=Il sorriso d'amor
TTITLE13=Flor de la noche
TTITLE14=Susanata
TTITLE15=Gracias a la vida
TTITLE16=Allez, Glissez
EXTD=Titel 7. mit 9. stehen unter dem Titel: Impressions d'un Rêve YEA
EXTD=R: 2000
EXTT0=
EXTT1=
EXTT2=
EXTT3=
EXTT4=
EXTT5=
EXTT6=
EXTT7=
EXTT8=
EXTT9=
EXTT10=
EXTT11=
EXTT12=
EXTT13=
EXTT14=
EXTT15=
EXTT16=
PLAYORDER=
